<?xml version="1.0" encoding="utf-8"?>
<!-- Generator: Adobe Illustrator 15.0.0, SVG Export Plug-In . SVG Version: 6.00 Build 0)  -->
<!DOCTYPE svg PUBLIC "-//W3C//DTD SVG 1.1//EN" "http://www.w3.org/Graphics/SVG/1.1/DTD/svg11.dtd">
<svg version="1.1" id="Layer_1" xmlns="http://www.w3.org/2000/svg" xmlns:xlink="http://www.w3.org/1999/xlink" x="0px" y="0px"
	 width="442px" height="59px" viewBox="0 -3.167 442 59" enable-background="new 0 -3.167 442 59" xml:space="preserve">
<g>
	<g>
		<g>
			<path fill="#FFFFFF" d="M69.076,14.511h19.74v5.994H75.915v4.159h11.666v5.71H75.915v8.813h-6.839V14.511z"/>
			<path fill="#FFFFFF" d="M104.504,39.679c-1.93,0-3.708-0.312-5.344-0.934c-1.633-0.623-3.048-1.5-4.243-2.629
				c-1.201-1.125-2.144-2.474-2.826-4.035c-0.681-1.562-1.018-3.283-1.018-5.16v-0.076c0-1.786,0.33-3.457,0.996-5.018
				c0.667-1.565,1.587-2.927,2.754-4.093c1.17-1.159,2.566-2.073,4.196-2.731c1.632-0.658,3.399-0.985,5.305-0.985
				c2.185,0,4.068,0.317,5.657,0.952c1.583,0.634,3.037,1.515,4.354,2.643l-4.021,4.829c-0.893-0.753-1.803-1.326-2.73-1.727
				c-0.925-0.402-1.999-0.601-3.223-0.601c-0.897,0-1.721,0.177-2.486,0.527c-0.763,0.354-1.425,0.836-1.991,1.451
				c-0.563,0.609-1.009,1.326-1.341,2.15c-0.329,0.817-0.49,1.702-0.49,2.64v0.07c0,0.987,0.161,1.903,0.493,2.752
				c0.331,0.844,0.798,1.564,1.394,2.166c0.604,0.601,1.313,1.07,2.124,1.41c0.814,0.34,1.716,0.51,2.706,0.51
				c1.604,0,2.924-0.34,3.962-1.021v-2.995h-4.864v-5.007h11.35v11.107c-1.319,1.076-2.864,1.981-4.653,2.709
				C108.778,39.315,106.756,39.679,104.504,39.679z"/>
			<path fill="#FFFFFF" d="M117.05,14.511h7.649l5.604,15.615l5.604-15.615h7.512L133.38,39.188h-6.344L117.05,14.511z"/>
		</g>
	</g>
	<g>
		<polygon fill="#0D8CCD" points="35.213,22.544 43.714,14.58 62.866,14.58 46.663,29.643 		"/>
		<polygon fill="#FFFFFF" points="0,14.58 19.702,14.58 41.142,39.214 21.444,39.214 		"/>
	</g>
</g>
<g>
	<path fill="#FFFFFF" d="M175.165,14.68h3.008l8.51,20.61l8.544-20.61h2.906l-10.288,24.096h-2.393L175.165,14.68z"/>
	<path fill="#FFFFFF" d="M203.089,14.68h2.699v23.925h-2.699V14.68z"/>
	<path fill="#FFFFFF" d="M210.743,14.68h3.008l8.51,20.61l8.544-20.61h2.906l-10.288,24.096h-2.392L210.743,14.68z"/>
	<path fill="#FFFFFF" d="M249.536,39.015c-1.824,0-3.48-0.331-4.974-0.991c-1.493-0.661-2.772-1.558-3.844-2.685
		c-1.072-1.127-1.898-2.438-2.479-3.93s-0.871-3.059-0.871-4.7v-0.068c0-1.641,0.295-3.213,0.889-4.717
		c0.592-1.503,1.423-2.819,2.494-3.948c1.071-1.127,2.357-2.027,3.863-2.699c1.502-0.672,3.166-1.008,4.988-1.008
		c1.824,0,3.481,0.33,4.975,0.991c1.491,0.661,2.772,1.555,3.844,2.683c1.072,1.129,1.896,2.439,2.478,3.931
		c0.582,1.493,0.872,3.059,0.872,4.699c0.022,0.023,0.022,0.046,0,0.069c0,1.642-0.296,3.214-0.889,4.716
		c-0.592,1.505-1.423,2.82-2.494,3.948c-1.072,1.127-2.358,2.028-3.863,2.7C253.021,38.678,251.358,39.015,249.536,39.015z
		 M249.603,36.521c1.369,0,2.627-0.257,3.779-0.77c1.149-0.514,2.136-1.213,2.956-2.103c0.82-0.889,1.463-1.926,1.931-3.11
		c0.466-1.186,0.7-2.461,0.7-3.829v-0.068c0-1.367-0.234-2.649-0.7-3.845c-0.467-1.197-1.123-2.239-1.966-3.128
		c-0.843-0.888-1.84-1.594-2.99-2.119c-1.15-0.523-2.411-0.786-3.776-0.786c-1.367,0-2.627,0.256-3.776,0.769
		c-1.152,0.513-2.136,1.214-2.957,2.103c-0.82,0.888-1.464,1.926-1.932,3.11c-0.467,1.186-0.7,2.461-0.7,3.828v0.069
		c0,1.367,0.233,2.649,0.7,3.845c0.468,1.195,1.123,2.238,1.966,3.127s1.84,1.596,2.99,2.12
		C246.979,36.257,248.237,36.521,249.603,36.521z"/>
</g>
<g>
	<path fill="#FFFFFF" d="M292.866,23.405l-2.649-3.548h-2.609v3.548h-1.029v-9.132h3.927c2.009,0,3.301,1.083,3.301,2.727
		c0,1.526-1.043,2.414-2.479,2.674l2.805,3.731H292.866z M290.427,15.225h-2.819v3.706h2.806c1.37,0,2.348-0.705,2.348-1.892
		C292.761,15.904,291.9,15.225,290.427,15.225z"/>
	<path fill="#FFFFFF" d="M298.812,22.688c0.927,0,1.58-0.378,2.127-0.953l0.626,0.561c-0.679,0.757-1.5,1.265-2.778,1.265
		c-1.854,0-3.367-1.422-3.367-3.522c0-1.957,1.371-3.523,3.237-3.523c1.995,0,3.144,1.592,3.144,3.575c0,0.091,0,0.196-0.014,0.313
		h-5.35C296.581,21.865,297.625,22.688,298.812,22.688z M300.783,19.66c-0.104-1.226-0.81-2.296-2.152-2.296
		c-1.174,0-2.062,0.979-2.192,2.296H300.783z"/>
	<path fill="#FFFFFF" d="M308.974,23.405v-1.357c-0.548,0.81-1.344,1.5-2.583,1.5c-1.618,0-3.222-1.278-3.222-3.509
		c0-2.218,1.604-3.523,3.222-3.523c1.252,0,2.062,0.679,2.583,1.436v-4.07h1.004v9.524L308.974,23.405L308.974,23.405z
		 M306.574,17.417c-1.307,0-2.375,0.965-2.375,2.609c0,1.604,1.096,2.623,2.375,2.623c1.252,0,2.439-1.044,2.439-2.623
		C309.013,18.46,307.825,17.417,306.574,17.417z"/>
	<path fill="#FFFFFF" d="M315.195,22.688c0.928,0,1.58-0.378,2.127-0.953l0.627,0.561c-0.68,0.757-1.5,1.265-2.779,1.265
		c-1.854,0-3.366-1.422-3.366-3.522c0-1.957,1.37-3.523,3.236-3.523c1.996,0,3.144,1.592,3.144,3.575c0,0.091,0,0.196-0.014,0.313
		h-5.35C312.964,21.865,314.008,22.688,315.195,22.688z M317.165,19.66c-0.104-1.226-0.81-2.296-2.152-2.296
		c-1.174,0-2.062,0.979-2.192,2.296H317.165z"/>
	<path fill="#FFFFFF" d="M329.27,23.405v-1.357c-0.55,0.81-1.345,1.5-2.584,1.5c-1.618,0-3.222-1.278-3.222-3.509
		c0-2.218,1.604-3.523,3.222-3.523c1.252,0,2.062,0.679,2.584,1.436v-4.07h1.003v9.524L329.27,23.405L329.27,23.405z
		 M326.869,17.417c-1.306,0-2.375,0.965-2.375,2.609c0,1.604,1.096,2.623,2.375,2.623c1.252,0,2.438-1.044,2.438-2.623
		C329.309,18.46,328.121,17.417,326.869,17.417z"/>
	<path fill="#FFFFFF" d="M335.49,22.688c0.927,0,1.578-0.378,2.127-0.953l0.626,0.561c-0.68,0.757-1.5,1.265-2.779,1.265
		c-1.854,0-3.366-1.422-3.366-3.522c0-1.957,1.37-3.523,3.234-3.523c1.997,0,3.146,1.592,3.146,3.575c0,0.091,0,0.196-0.014,0.313
		h-5.349C333.259,21.865,334.303,22.688,335.49,22.688z M337.461,19.66c-0.104-1.226-0.81-2.296-2.152-2.296
		c-1.173,0-2.062,0.979-2.191,2.296H337.461z"/>
	<path fill="#FFFFFF" d="M347.569,20.182h-2.218v3.223h-1.03v-9.132h3.417c2.063,0,3.42,1.096,3.42,2.909
		C351.156,19.165,349.512,20.182,347.569,20.182z M347.66,15.225h-2.312v4.019h2.258c1.515,0,2.505-0.809,2.505-2.022
		C350.113,15.904,349.134,15.225,347.66,15.225z"/>
	<path fill="#FFFFFF" d="M355.838,22.688c0.927,0,1.579-0.378,2.127-0.953l0.626,0.561c-0.679,0.757-1.5,1.265-2.778,1.265
		c-1.854,0-3.367-1.422-3.367-3.522c0-1.957,1.37-3.523,3.236-3.523c1.995,0,3.146,1.592,3.146,3.575c0,0.091,0,0.196-0.014,0.313
		h-5.351C353.607,21.865,354.651,22.688,355.838,22.688z M357.808,19.66c-0.104-1.226-0.809-2.296-2.152-2.296
		c-1.173,0-2.061,0.979-2.19,2.296H357.808z"/>
	<path fill="#FFFFFF" d="M362.817,23.536c-0.965,0-2.034-0.378-2.793-0.992l0.512-0.718c0.729,0.549,1.537,0.861,2.334,0.861
		c0.809,0,1.396-0.417,1.396-1.07v-0.026c0-0.678-0.795-0.939-1.682-1.187c-1.059-0.3-2.232-0.666-2.232-1.905v-0.026
		c0-1.161,0.966-1.931,2.298-1.931c0.821,0,1.735,0.287,2.427,0.744l-0.458,0.756c-0.625-0.404-1.344-0.653-1.995-0.653
		c-0.795,0-1.306,0.417-1.306,0.979v0.027c0,0.639,0.835,0.887,1.736,1.161c1.043,0.313,2.165,0.718,2.165,1.931v0.026
		C365.217,22.792,364.159,23.536,362.817,23.536z"/>
	<path fill="#FFFFFF" d="M372.495,25.492v-3.444c-0.551,0.81-1.346,1.5-2.584,1.5c-1.617,0-3.224-1.278-3.224-3.509
		c0-2.218,1.605-3.523,3.224-3.523c1.253,0,2.062,0.679,2.584,1.436V16.66h1.005v8.833L372.495,25.492L372.495,25.492z
		 M370.094,17.417c-1.305,0-2.374,0.965-2.374,2.609c0,1.604,1.096,2.623,2.374,2.623c1.253,0,2.44-1.044,2.44-2.623
		C372.534,18.46,371.347,17.417,370.094,17.417z"/>
	<path fill="#FFFFFF" d="M380.53,16.66h0.991v6.746h-0.991v-1.174c-0.458,0.73-1.147,1.317-2.31,1.317
		c-1.631,0-2.583-1.096-2.583-2.7V16.66h1.005v3.941c0,1.252,0.678,2.036,1.864,2.036c1.147,0,2.022-0.848,2.022-2.114L380.53,16.66
		L380.53,16.66z"/>
	<path fill="#FFFFFF" d="M383.802,15.185v-1.108h1.148v1.109L383.802,15.185L383.802,15.185z M383.866,23.405V16.66h1.005v6.746
		L383.866,23.405L383.866,23.405z"/>
	<path fill="#FFFFFF" d="M389.438,23.536c-0.966,0-2.036-0.378-2.792-0.992l0.509-0.718c0.73,0.549,1.539,0.861,2.336,0.861
		c0.81,0,1.396-0.417,1.396-1.07v-0.026c0-0.678-0.796-0.939-1.684-1.187c-1.057-0.3-2.231-0.666-2.231-1.905v-0.026
		c0-1.161,0.966-1.931,2.297-1.931c0.822,0,1.736,0.287,2.426,0.744l-0.456,0.756c-0.625-0.404-1.345-0.653-1.996-0.653
		c-0.795,0-1.305,0.417-1.305,0.979v0.027c0,0.639,0.835,0.887,1.736,1.161c1.043,0.313,2.165,0.718,2.165,1.931v0.026
		C391.838,22.792,390.781,23.536,389.438,23.536z"/>
	<path fill="#FFFFFF" d="M394.094,17.952l-0.301-0.822c0.744-0.338,1.474-0.561,2.452-0.561c1.839,0,2.871,0.938,2.871,2.713v4.123
		h-0.967v-1.017c-0.47,0.613-1.253,1.161-2.438,1.161c-1.253,0-2.519-0.705-2.519-2.114c0-1.435,1.174-2.192,2.884-2.192
		c0.86,0,1.475,0.118,2.073,0.287v-0.234c0-1.214-0.743-1.839-2.009-1.839C395.346,17.456,394.72,17.665,394.094,17.952z
		 M394.211,21.395c0,0.861,0.783,1.357,1.694,1.357c1.24,0,2.259-0.756,2.259-1.826v-0.653c-0.495-0.144-1.161-0.288-1.983-0.288
		C394.915,19.986,394.211,20.535,394.211,21.395z"/>
	<path fill="#FFFFFF" d="M408.142,22.688c0.928,0,1.579-0.378,2.127-0.953l0.626,0.561c-0.679,0.757-1.5,1.265-2.777,1.265
		c-1.854,0-3.367-1.422-3.367-3.522c0-1.957,1.371-3.523,3.234-3.523c1.998,0,3.146,1.592,3.146,3.575c0,0.091,0,0.196-0.014,0.313
		h-5.351C405.91,21.865,406.955,22.688,408.142,22.688z M410.112,19.66c-0.104-1.226-0.809-2.296-2.151-2.296
		c-1.174,0-2.062,0.979-2.191,2.296H410.112z"/>
	<path fill="#FFFFFF" d="M290.752,39.212c-2.635,0-4.58-2.072-4.58-4.709c0-2.608,1.931-4.734,4.618-4.734
		c1.657,0,2.648,0.586,3.562,1.445l-0.704,0.759c-0.77-0.731-1.631-1.252-2.871-1.252c-2.021,0-3.535,1.631-3.535,3.757
		c0,2.128,1.526,3.783,3.535,3.783c1.252,0,2.075-0.482,2.949-1.317l0.678,0.666C293.453,38.574,292.409,39.212,290.752,39.212z"/>
	<path fill="#FFFFFF" d="M299.113,39.212c-2.021,0-3.496-1.59-3.496-3.51c0-1.918,1.487-3.535,3.522-3.535
		c2.021,0,3.509,1.593,3.509,3.511C302.649,37.597,301.148,39.212,299.113,39.212z M299.113,33.055
		c-1.461,0-2.466,1.161-2.466,2.623s1.071,2.636,2.493,2.636c1.461,0,2.479-1.161,2.479-2.609
		C301.618,34.23,300.534,33.055,299.113,33.055z"/>
	<path fill="#FFFFFF" d="M305.464,39.057h-1.004v-6.745h1.004v1.174c0.444-0.73,1.148-1.316,2.309-1.316
		c1.631,0,2.584,1.096,2.584,2.699v4.188h-1.004v-3.94c0-1.252-0.679-2.035-1.867-2.035c-1.16,0-2.021,0.849-2.021,2.114V39.057z"/>
	<path fill="#FFFFFF" d="M313.499,39.057h-1.004v-9.522h1.004v3.952c0.442-0.729,1.147-1.317,2.309-1.317
		c1.631,0,2.583,1.098,2.583,2.701v4.188h-1.004v-3.939c0-1.252-0.678-2.035-1.866-2.035c-1.161,0-2.021,0.849-2.021,2.113
		L313.499,39.057L313.499,39.057z"/>
	<path fill="#FFFFFF" d="M323.504,38.339c0.927,0,1.579-0.379,2.127-0.952l0.625,0.562c-0.678,0.758-1.5,1.266-2.779,1.266
		c-1.853,0-3.367-1.422-3.367-3.522c0-1.956,1.371-3.522,3.236-3.522c1.997,0,3.146,1.593,3.146,3.574c0,0.092,0,0.195-0.016,0.313
		h-5.35C321.273,37.518,322.317,38.339,323.504,38.339z M325.474,35.313c-0.104-1.228-0.81-2.297-2.152-2.297
		c-1.174,0-2.062,0.979-2.191,2.297H325.474z"/>
	<path fill="#FFFFFF" d="M331.29,39.212c-1.971,0-3.457-1.604-3.457-3.51c0-1.918,1.487-3.535,3.457-3.535
		c1.278,0,2.076,0.535,2.702,1.199l-0.667,0.706c-0.535-0.562-1.136-1.019-2.05-1.019c-1.37,0-2.413,1.162-2.413,2.623
		c0,1.475,1.07,2.636,2.479,2.636c0.861,0,1.527-0.431,2.062-1.005l0.64,0.602C333.365,38.667,332.555,39.212,331.29,39.212z"/>
	<path fill="#FFFFFF" d="M335.724,30.837v-1.109h1.148v1.109H335.724z M335.789,39.057v-6.745h1.006v6.745H335.789z"/>
	<path fill="#FFFFFF" d="M346.852,32.167c1.554,0,2.507,1.045,2.507,2.715v4.175h-1.005v-3.94c0-1.305-0.651-2.035-1.748-2.035
		c-1.019,0-1.865,0.756-1.865,2.088v3.889h-0.991v-3.969c0-1.266-0.666-2.008-1.735-2.008c-1.07,0-1.879,0.888-1.879,2.125v3.851
		h-1.004v-6.745h1.004v1.135c0.443-0.665,1.044-1.277,2.179-1.277c1.097,0,1.8,0.586,2.166,1.344
		C344.961,32.769,345.678,32.167,346.852,32.167z"/>
	<path fill="#FFFFFF" d="M354.508,38.339c0.928,0,1.579-0.379,2.127-0.952l0.626,0.562c-0.679,0.758-1.499,1.266-2.777,1.266
		c-1.854,0-3.366-1.422-3.366-3.522c0-1.956,1.368-3.522,3.234-3.522c1.995,0,3.146,1.593,3.146,3.574c0,0.092,0,0.195-0.015,0.313
		h-5.35C352.277,37.518,353.321,38.339,354.508,38.339z M356.478,35.313c-0.104-1.228-0.808-2.297-2.151-2.297
		c-1.174,0-2.062,0.979-2.192,2.297H356.478z"/>
	<path fill="#FFFFFF" d="M360.259,39.057h-1.004v-6.745h1.004v1.174c0.444-0.73,1.148-1.316,2.31-1.316
		c1.632,0,2.584,1.096,2.584,2.699v4.188h-1.006v-3.94c0-1.252-0.678-2.035-1.864-2.035c-1.161,0-2.022,0.849-2.022,2.114
		L360.259,39.057L360.259,39.057z"/>
	<path fill="#FFFFFF" d="M368.647,37.14c0,0.82,0.457,1.121,1.136,1.121c0.34,0,0.627-0.065,0.979-0.234v0.861
		c-0.353,0.183-0.73,0.285-1.214,0.285c-1.083,0-1.905-0.533-1.905-1.905v-4.069h-0.938v-0.887h0.938v-2.035h1.005v2.035h2.141
		v0.887h-2.141V37.14L368.647,37.14z"/>
	<path fill="#FFFFFF" d="M375.639,39.212c-2.022,0-3.497-1.59-3.497-3.51c0-1.918,1.487-3.535,3.522-3.535
		c2.021,0,3.509,1.593,3.509,3.511C379.173,37.597,377.673,39.212,375.639,39.212z M375.639,33.055
		c-1.462,0-2.467,1.161-2.467,2.623s1.07,2.636,2.492,2.636c1.461,0,2.479-1.161,2.479-2.609
		C378.144,34.23,377.06,33.055,375.639,33.055z"/>
	<path fill="#FFFFFF" d="M393.574,39.057h-1.109l-1.069-2.412h-4.971l-1.083,2.412h-1.057l4.161-9.197h0.967L393.574,39.057z
		 M388.917,31.06l-2.088,4.656h4.161L388.917,31.06z"/>
	<path fill="#FFFFFF" d="M398.79,39.201c-1.252,0-2.062-0.679-2.583-1.436v3.38h-1.005v-8.833h1.005v1.357
		c0.549-0.81,1.344-1.502,2.583-1.502c1.617,0,3.223,1.278,3.223,3.511C402.013,37.897,400.421,39.201,398.79,39.201z
		 M398.608,33.069c-1.253,0-2.439,1.044-2.439,2.609c0,1.579,1.188,2.622,2.439,2.622c1.306,0,2.375-0.965,2.375-2.608
		C400.983,34.087,399.886,33.069,398.608,33.069z"/>
	<path fill="#FFFFFF" d="M403.954,39.057v-9.522h1.004v9.522H403.954z"/>
	<path fill="#FFFFFF" d="M407.32,30.837v-1.109h1.147v1.109H407.32z M407.385,39.057v-6.745h1.004v6.745H407.385z"/>
	<path fill="#FFFFFF" d="M413.763,39.212c-1.969,0-3.457-1.604-3.457-3.51c0-1.918,1.489-3.535,3.457-3.535
		c1.279,0,2.075,0.535,2.702,1.199l-0.666,0.706c-0.535-0.562-1.136-1.019-2.049-1.019c-1.371,0-2.413,1.162-2.413,2.623
		c0,1.475,1.068,2.636,2.478,2.636c0.861,0,1.526-0.431,2.062-1.005l0.64,0.602C415.838,38.667,415.03,39.212,413.763,39.212z"/>
	<path fill="#FFFFFF" d="M418.564,33.604l-0.301-0.822c0.744-0.339,1.474-0.562,2.452-0.562c1.84,0,2.87,0.939,2.87,2.714v4.123
		h-0.965v-1.017c-0.47,0.611-1.254,1.16-2.44,1.16c-1.252,0-2.518-0.705-2.518-2.113c0-1.436,1.174-2.191,2.884-2.191
		c0.86,0,1.474,0.117,2.074,0.286v-0.234c0-1.214-0.744-1.84-2.01-1.84C419.816,33.109,419.19,33.318,418.564,33.604z
		 M418.681,37.048c0,0.859,0.783,1.355,1.696,1.355c1.239,0,2.257-0.757,2.257-1.824v-0.653c-0.495-0.145-1.161-0.286-1.983-0.286
		C419.384,35.639,418.681,36.187,418.681,37.048z"/>
	<path fill="#FFFFFF" d="M431.139,39.057v-1.356c-0.55,0.809-1.345,1.5-2.584,1.5c-1.618,0-3.223-1.277-3.223-3.51
		c0-2.218,1.604-3.521,3.223-3.521c1.252,0,2.062,0.679,2.584,1.436v-4.07h1.004v9.523L431.139,39.057L431.139,39.057z
		 M428.738,33.069c-1.306,0-2.375,0.966-2.375,2.609c0,1.604,1.098,2.622,2.375,2.622c1.253,0,2.44-1.043,2.44-2.622
		C431.178,34.113,429.989,33.069,428.738,33.069z"/>
	<path fill="#FFFFFF" d="M437.464,39.212c-2.022,0-3.497-1.59-3.497-3.51c0-1.918,1.488-3.535,3.523-3.535
		c2.021,0,3.51,1.593,3.51,3.511C441,37.597,439.499,39.212,437.464,39.212z M437.464,33.055c-1.462,0-2.466,1.161-2.466,2.623
		s1.068,2.636,2.492,2.636c1.461,0,2.478-1.161,2.478-2.609C439.969,34.23,438.886,33.055,437.464,33.055z"/>
</g>
<g>
	<rect x="158.701" y="14.333" fill="#FFFFFF" width="0.712" height="24.917"/>
</g>
<g>
	<rect x="273.5" y="14.333" fill="#FFFFFF" width="0.711" height="24.917"/>
</g>
</svg>
